<?xml version="1.0" encoding="UTF-8" standalone="no"?>
<svg
   xmlns:dc="http://purl.org/dc/elements/1.1/"
   xmlns:cc="http://creativecommons.org/ns#"
   xmlns:rdf="http://www.w3.org/1999/02/22-rdf-syntax-ns#"
   xmlns:svg="http://www.w3.org/2000/svg"
   xmlns="http://www.w3.org/2000/svg"
   xmlns:sodipodi="http://sodipodi.sourceforge.net/DTD/sodipodi-0.dtd"
   xmlns:inkscape="http://www.inkscape.org/namespaces/inkscape"
   width="28.740944mm"
   height="73.901886mm"
   viewbox="0 0 100 100"
   version="1.1"
   id="svg3725"
   sodipodi:docname="flower-mix.svg"
   inkscape:version="0.92.4 (5da689c313, 2019-01-14)">
  <metadata
     id="metadata3731">
    <rdf:RDF>
      <cc:Work
         rdf:about="">
        <dc:format>image/svg+xml</dc:format>
        <dc:type
           rdf:resource="http://purl.org/dc/dcmitype/StillImage" />
        <dc:title></dc:title>
      </cc:Work>
    </rdf:RDF>
  </metadata>
  <defs
     id="defs3729" />
  <sodipodi:namedview
     pagecolor="#ffffff"
     bordercolor="#666666"
     borderopacity="1"
     objecttolerance="10"
     gridtolerance="10"
     guidetolerance="10"
     inkscape:pageopacity="0"
     inkscape:pageshadow="2"
     inkscape:window-width="2327"
     inkscape:window-height="1511"
     id="namedview3727"
     showgrid="false"
     fit-margin-top="5"
     fit-margin-left="5"
     fit-margin-right="5"
     fit-margin-bottom="5"
     inkscape:zoom="2.2768691"
     inkscape:cx="46.022627"
     inkscape:cy="140.86904"
     inkscape:window-x="0"
     inkscape:window-y="0"
     inkscape:window-maximized="0"
     inkscape:current-layer="svg3725" />
  <path
     d="m 84.373555,72.888301 -0.27356,1.111266 -1.54237,0.337043 -0.39138,1.043661 -1.71554,0.07625 -2.03858,-0.305123 -1.32253,0.174958 -2.06159,-0.60657 -2.53307,-1.211479 -2.07337,-0.947687 -3.06935,-2.326292 -1.24073,-0.469874 -3.2749,-3.193671 -1.53701,-1.239431 -2.07216,-2.295945 -2.74435,-3.696285 -1.48819,-2.168363 -1.81901,-3.038453 -1.19256,-2.402251 -1.81597,-4.028246 -0.94882,-2.746623 -0.84784,-3.023038 -0.24943,-1.976331 -0.59913,-3.376084 0.057,-2.008022 -0.3551,-3.881701 0.31779,-2.181195 0.58548,-1.381921 0.47109,-2.588991 0.94362,-0.519226 0.79738,-1.952097 0.95859,-1.248524 1.02797,-1.208706 1.1334,0.15463 1.11166,-0.169141 1.07535,0.697797 0.99084,1.4679 1.08151,0.04414 0.73883,2.268707 0.92805,0.532562 0.29399,3.38545 0.43812,1.888611 0.20661,2.332234 0.21744,1.831152 -0.53515,3.705189 -0.17872,2.099585 -1.09141,4.031626 -0.60943,2.267488 -1.02963,2.798831 -1.8665,3.955791 -1.40274,2.665434 -1.41436,2.243693 -1.72622,2.525924 -2.53987,3.200431 -2.1687,2.352709 -2.29625,2.233406 -2.29806,1.874938 -2.64318,2.034314 -2.11559,1.114937 -1.252991,0.134154 -3.368629,1.952368 -1.443811,0.02466 -2.114413,0.469957 -1.330323,-0.313754 -1.87181,0.06729 -0.02239,-1.327215 -2.012999,-0.04832 0.603272,-1.613835 -0.794799,-0.825041 -0.103303,-1.166117 0.519793,-1.408089 0.851104,-1.483146 1.323897,-1.603838 0.706765,-1.231618 1.801226,-1.491336 1.23017,-1.219501 2.280971,-1.342859 2.904907,-1.365289 3.383373,-1.194487 1.25275,-0.676187 2.99445,-0.818131 4.53353,-0.707414 2.22204,-0.315957 4.04763,-0.202238 3.82395,0.02682 2.8549,0.208624 2.97604,0.43955 2.57391,0.577735 3.55701,0.853646 3.73629,1.16406 2.17987,1.043388 2.4176,1.272047 1.12424,1.094798 2.08728,1.486024 1.65317,1.47903 1.40376,1.531911 1.43945,1.690741 0.13799,1.186026 0.67816,1.530587 -0.75324,0.870592 -0.14852,1.183023"
     style="fill:#2aaacc;fill-opacity:1;stroke:#000000;stroke-width:1.00000003pt"
     id="path3723"
     inkscape:connector-curvature="0" />
  <path
     inkscape:connector-curvature="0"
     d="m 87.470175,127.69561 0.96588,0.82945 -1.88682,1.70166 -1.11641,1.32884 -2.63775,1.5809 -4.08539,1.64867 -3.24594,1.23075 -4.49879,1.18868 -6.24307,1.04175 -4.39618,0.50753 -5.41067,0.29818 -6.61674,-0.067 -4.38161,-0.39712 -5.96424,-0.78 -3.736291,-0.9171 -4.141674,-1.2317 -3.562022,-1.422 -2.074734,-1.34476 -2.875541,-1.6705 -0.584173,-1.25807 -0.943692,-1.4404 0.88433,-0.89915 2.028294,-0.43833 2.036337,-0.29296 4.00843,0.66403 2.749313,0.35955 4.202393,1.28475 5.21893,2.20247 4.12485,1.94663 5.28538,3.00495 3.86918,2.52207 4.89743,3.62624 3.85021,3.32241 3.76817,3.60485 2.63945,3.09642 3.32455,4.0655 1.65913,2.8329 1.52505,2.99578 1.06665,2.74189 -0.46044,1.17559 -0.98041,0.53027 -1.28952,0.0659 -0.80771,0.69268 -2.4642,-1.91888 -1.94245,-1.39061 -2.96784,-3.58587 -2.50941,-3.33198 -2.34197,-3.61227 -2.1647,-3.86421 -2.38578,-5.17402 -2.40659,-6.3945 -1.43117,-4.67935 -1.12077,-4.63874 -0.89484,-5.05572 -0.47236,-4.63062 -0.15717,-4.4541 0.072,-4.86162 0.72695,-1.90296 0.69988,-3.38584 1.02999,-1.15072 1.12011,0.85008 1.08714,-0.8636 1.07775,1.27752 0.80556,3.3933 0.71582,2.49305 0.41237,3.5719 0.0198,4.60753 -0.1146,3.66986 -0.85052,5.88284 -1.12035,5.53185 -1.33862,4.99365 -2.04771,6.0014 -1.92828,4.60533 -1.96235,3.86571 -2.38566,4.17116 -2.81413,4.30906 -2.30226,2.67115 -2.00422,1.66827 -1.90731,1.30659 -2.159891,1.34121 -0.70035,-0.92147 -1.030581,-0.50011 -0.04607,-1.75148 1.366157,-3.204 0.840885,-2.42928 1.69078,-3.03075 2.74164,-3.75477 2.96196,-3.57712 2.85345,-3.12676 4.59293,-4.18468 3.88383,-3.17693 4.3124,-3.03969 4.52981,-2.83988 4.55032,-2.4448 5.20236,-2.39561 4.22898,-1.53968 2.6738,-0.40804 3.81091,-0.79154 2.32908,0.12418 1.24435,0.65886 1.03105,0.80686"
     style="fill:#2aaacc;fill-opacity:1;stroke:#000000;stroke-width:1.00000003pt"
     id="path3743" />
  <path
     inkscape:connector-curvature="0"
     d="m 69.606785,191.79515 0.73769,0.99462 -0.0572,2.29923 -1.11898,3.71667 -2.46884,5.44956 -3.42062,6.09687 -4.21404,6.4209 -4.06079,5.47151 -4.77926,5.66524 -5.68905,5.97678 -4.72388,4.23366 -4.706267,3.6521 -4.195468,2.67744 -3.106037,1.36262 -1.490784,-0.18459 -0.171346,-1.26425 0.726914,-1.89325 3.330768,-3.41277 3.444577,-3.16772 4.493313,-3.44464 6.50937,-4.10514 6.35797,-3.47778 7.98824,-3.73709 6.08542,-2.35302 6.47708,-2.03867 6.1283,-1.48574 5.02531,-0.73431 4.08656,-0.13629 2.17806,0.55463 0.0674,1.13542 -2.37989,1.56239 -1.5727,1.27856 -5.84535,1.63546 -5.52237,1.20349 -6.5128,0.95221 -6.82071,0.4896 -7.70501,0.0899 -7.60181,-0.41635 -8.41998,-0.92844 -5.394214,-1.17233 -5.486411,-1.50701 -4.2128,-1.62922 -0.918383,-1.28498 -0.820148,-1.30367 1.326392,-0.77562 3.219094,-0.11578 4.386573,0.45607 5.470289,1.17619 5.347488,1.47236 7.20461,2.70493 7.20461,3.25056 6.66137,3.54122 7.37981,4.43875 4.95835,3.65355 3.84218,3.34067 3.4003,3.44715 1.89121,2.66343 -0.79893,0.74446 -1.19498,0.43912 -1.47942,0.11048 -4.3431,-2.79542 -3.42653,-2.27967 -5.442,-4.82581 -4.49079,-4.44896 -5.42237,-6.25262 -4.81937,-6.347 -3.92096,-5.86239 -3.90537,-6.68991 -1.8098,-4.19361 -2.19998,-5.4203 -0.65333,-3.32651 0.60703,-1.23932 0.55664,-1.38649 2.33895,2.72685 1.89983,2.07749 2.28065,3.80068 2.59604,5.72564 2.70983,7.60756 1.91716,6.38416 1.63784,7.22723 1.36125,8.4057 0.52903,6.1719 0.2376,7.17608 -0.4284,4.4892 -0.7264,4.14281 -0.9967,1.71657 -1.13139,1.10496 -1.00213,-2.22795 -0.91966,-1.98712 -0.41064,-5.36785 0.0476,-6.2124 0.5296,-6.87823 0.99109,-6.77468 1.62764,-7.68776 1.89392,-6.84466 2.4949,-7.18501 2.44502,-5.62826 3.03647,-6.04005 2.29891,-3.26122 2.04542,-1.99348 0.97466,0.51081"
     style="fill:#2aaacc;fill-opacity:1;stroke:#000000;stroke-width:1.00000003pt"
     id="path3778-3"
     inkscape:transform-center-x="24.913064"
     inkscape:transform-center-y="-30.681703" />
</svg>
