<?xml version="1.0" encoding="UTF-8" standalone="no"?>
<svg
   xmlns:dc="http://purl.org/dc/elements/1.1/"
   xmlns:cc="http://creativecommons.org/ns#"
   xmlns:rdf="http://www.w3.org/1999/02/22-rdf-syntax-ns#"
   xmlns:svg="http://www.w3.org/2000/svg"
   xmlns="http://www.w3.org/2000/svg"
   xmlns:sodipodi="http://sodipodi.sourceforge.net/DTD/sodipodi-0.dtd"
   xmlns:inkscape="http://www.inkscape.org/namespaces/inkscape"
   width="65.37841mm"
   height="28.975285mm"
   viewbox="0 0 100 100"
   version="1.1"
   id="svg3725"
   sodipodi:docname="flower-mix.svg"
   inkscape:version="0.92.4 (5da689c313, 2019-01-14)">
  <metadata
     id="metadata3731">
    <rdf:RDF>
      <cc:Work
         rdf:about="">
        <dc:format>image/svg+xml</dc:format>
        <dc:type
           rdf:resource="http://purl.org/dc/dcmitype/StillImage" />
        <dc:title></dc:title>
      </cc:Work>
    </rdf:RDF>
  </metadata>
  <defs
     id="defs3729" />
  <sodipodi:namedview
     pagecolor="#ffffff"
     bordercolor="#666666"
     borderopacity="1"
     objecttolerance="10"
     gridtolerance="10"
     guidetolerance="10"
     inkscape:pageopacity="0"
     inkscape:pageshadow="2"
     inkscape:window-width="2327"
     inkscape:window-height="1511"
     id="namedview3727"
     showgrid="false"
     fit-margin-top="5"
     fit-margin-left="5"
     fit-margin-right="5"
     fit-margin-bottom="5"
     inkscape:zoom="6.4399583"
     inkscape:cx="110.4857"
     inkscape:cy="53.133819"
     inkscape:window-x="0"
     inkscape:window-y="0"
     inkscape:window-maximized="0"
     inkscape:current-layer="svg3725" />
  <path
     d="m 74.726108,53.544029 0.31583,1.1 -1.17,1.06 0.18,1.1 -1.45,0.92 -1.92,0.75 -1.06,0.81 -2.09,0.5 -2.8,0.21 -2.27,0.21 -3.82,-0.49 -1.31,0.21 -4.43,-1.14 -1.95,-0.31 -2.94,-0.96 -4.22,-1.84 -2.37,-1.14 -3.09,-1.73 -2.23,-1.49 -3.58,-2.59 -2.19,-1.91 -2.24,-2.2 -1.2,-1.59 -2.2,-2.63 -0.95,-1.77 -2.24,-3.19 -0.81,-2.05 -0.18,-1.49 -0.88,-2.48 0.56,-0.92 -0.28,-2.090001 0.21,-1.56 0.29,-1.56 1.06,-0.43 0.88,-0.7 1.28,0.07 1.59,0.78 0.96,-0.5 1.77,1.6 h 1.07 l 1.94,2.79 1.32,1.420001 1.34,1.92 1.1,1.48 1.38,3.48 0.89,1.91 1.06,4.04 0.6,2.27 0.5,2.94 0.35,4.36 0.11,3.01 -0.11,2.65 -0.24,3.05 -0.61,4.04 -0.71,3.12 -0.88,3.08 -1.06,2.77 -1.28,3.08 -1.28,2.02 -1.02,0.74 -1.95,3.37 -1.24,0.74 -1.6,1.46 -1.31,0.39 -1.59,0.99 -0.68,-1.14 -1.77,0.96 -0.28,-1.7 -1.1,-0.32 -0.67,-0.96 -0.25,-1.48 v -1.71 l 0.35,-2.05 v -1.42 l 0.82,-2.19 0.46,-1.67 1.31,-2.3 1.84,-2.63 2.34,-2.72 0.75,-1.21 2.19,-2.2 3.58,-2.87 1.77,-1.38 3.41,-2.19 3.33,-1.88 2.58,-1.24 2.8,-1.1 2.52,-0.78 3.51,-1.03 3.82,-0.85 2.41,-0.18 2.73,-0.1 1.52,0.39 2.55,0.25 2.17,0.46 1.98,0.63 2.09,0.75 0.71,0.96 1.35,0.99 -0.22,1.13 0.46,1.1"
     style="fill:#2aaacc;fill-opacity:1;stroke:#000000;stroke-width:1.00000003pt"
     id="path3723"
     inkscape:connector-curvature="0" />
  <path
     inkscape:connector-curvature="0"
     d="m 152.08969,38.974261 1.07629,0.680084 -1.61914,1.958087 -0.91118,1.477138 -2.37966,1.947877 -3.80202,2.225554 -3.03232,1.689946 -4.27796,1.830616 -6.02505,1.939048 -4.27555,1.141781 -5.3097,1.082273 -6.55608,0.896448 -4.39276,0.244641 -6.01426,0.09612 -3.82997,-0.363699 -4.276812,-0.615972 -3.73102,-0.888585 -2.24832,-1.028572 -3.088,-1.234315 -0.76101,-1.159687 -1.14323,-1.287759 0.74409,-1.018251 1.94293,-0.728794 1.97204,-0.586133 4.06239,0.07373 2.77237,-0.04431 4.344602,0.659618 5.48386,1.41966 4.36419,1.325736 5.66636,2.203939 4.19497,1.932256 5.37294,2.875062 4.29265,2.726837 4.25259,3.018204 3.06189,2.679417 3.88072,3.538507 2.05366,2.561349 1.94472,2.741997 1.45425,2.55751 -0.28449,1.23007 -0.89282,0.667283 -1.26621,0.252817 -0.69833,0.80283 -2.71718,-1.539911 -2.12411,-1.093175 -3.45801,-3.115884 -2.96752,-2.931396 -2.84264,-3.233063 -2.70391,-3.508116 -3.11323,-4.771823 -3.31139,-5.976287 -2.0968,-4.421305 -1.78379,-4.426308 -1.62094,-4.871708 -1.1411,-4.512615 -0.80358,-4.383828 -0.63613,-4.820358 0.44233,-1.988479 0.19978,-3.45165 0.85159,-1.288331 1.23188,0.678054 0.94992,-1.012595 1.25216,1.10711 1.29072,3.239975 1.07095,2.362364 0.9277,3.473887 0.69004,4.555605 0.42059,3.64748 0.0145,5.943996 -0.30353,5.635989 -0.59778,5.135276 -1.1527,6.235485 -1.23767,4.836886 -1.379,4.110094 -1.75336,4.473893 -2.1572,4.672671 -1.8891,2.977706 -1.74015,1.942129 -1.6969,1.570204 -1.94176,1.641208 -0.82697,-0.809762 -1.09238,-0.344831 -0.30042,-1.726136 0.88543,-3.368681 0.47847,-2.525781 1.23181,-3.244509 2.16613,-4.113728 2.40996,-3.970023 2.36813,-3.508668 3.93517,-4.808434 3.38025,-3.708225 3.82422,-3.634811 4.06839,-3.468751 4.14617,-3.080868 4.79843,-3.127075 3.95995,-2.138623 2.58597,-0.792744 3.65519,-1.337611 2.32236,-0.216024 1.32697,0.47079 1.13748,0.648254"
     style="fill:#2aaacc;fill-opacity:1;stroke:#000000;stroke-width:1.00000003pt"
     id="path3743" />
  <path
     inkscape:connector-curvature="0"
     d="m 203.71737,20.154945 0.91532,0.834058 0.38636,2.267252 -0.38275,3.862551 -1.37387,5.822825 -2.18327,6.641223 -2.89949,7.111887 -2.93183,6.150768 -3.59958,6.479133 -4.4324,6.959964 -3.82076,5.063655 -3.9154,4.489598 -3.60173,3.434841 -2.78572,1.934936 -1.49844,0.10578 -0.41146,-1.207643 0.34895,-1.997758 2.61168,-3.990003 2.77052,-3.771444 3.74635,-4.245021 5.5976,-5.281184 5.56978,-4.636417 7.11966,-5.204641 5.51879,-3.480217 5.96363,-3.247144 5.72778,-2.637408 4.79004,-1.687754 3.98393,-0.92024 2.24409,0.125077 0.2847,1.101201 -2.0347,1.991229 -1.29723,1.557336 -5.42131,2.729865 -5.18751,2.243831 -6.20778,2.187861 -6.59896,1.793164 -7.54367,1.571088 -7.53983,1.054477 -8.44124,0.709419 -5.519,-0.112248 -5.67388,-0.422916 -4.4476,-0.787975 -1.14852,-1.084201 -1.05572,-1.121455 1.15232,-1.016392 3.13663,-0.73316 4.39234,-0.396697 5.59439,0.101387 5.53088,0.41566 7.59051,1.267769 7.69552,1.803189 7.21838,2.192975 8.09612,2.935452 5.56881,2.630963 4.4133,2.538749 4.00017,2.728285 2.36845,2.249655 -0.64071,0.884305 -1.08813,0.660899 -1.4305,0.39314 -4.79991,-1.907285 -3.80122,-1.577582 -6.26903,-3.68822 -5.26308,-3.501497 -6.52437,-5.09214 -5.95082,-5.300807 -4.97593,-4.998173 -5.11989,-5.813203 -2.58307,-3.766902 -3.20204,-4.895562 -1.28133,-3.138578 0.35716,-1.332979 0.27939,-1.4677 2.82003,2.225718 2.26415,1.67301 2.96949,3.290687 3.64946,5.118977 4.12331,6.943793 3.11002,5.895829 2.99817,6.7769 2.95356,7.986575 1.70698,5.9547 1.61426,6.996189 0.4436,4.48773 0.0845,4.205156 -0.64769,1.876301 -0.89758,1.30205 -1.41219,-1.993424 -1.2849,-1.772969 -1.43606,-5.188473 -1.14895,-6.105406 -0.80408,-6.851573 -0.33129,-6.83877 0.11763,-7.857287 0.54119,-7.081215 1.06543,-7.530852 1.3161,-5.993595 1.81724,-6.511542 1.62828,-3.642692 1.62351,-2.349875 1.05475,0.313683"
     style="fill:#2aaacc;fill-opacity:1;stroke:#000000;stroke-width:1.00000003pt"
     id="path3778-3" />
</svg>
